<svg t="1604035675311" class="icon" viewBox="0 0 1024 1024" version="1.1" xmlns="http://www.w3.org/2000/svg" p-id="6932" width="12" height="12"><path d="M512 0C230.4 0 0 230.4 0 512s230.4 512 512 512 512-230.4 512-512S793.6 0 512 0z m307.2 332.8l-365.714286 405.942857c-7.314286 7.314286-21.942857 7.314286-29.257143 0l-219.428571-226.742857c-3.657143-3.657143-7.314286-10.971429-7.314286-14.628571 0-3.657143 3.657143-10.971429 7.314286-14.628572l36.571429-32.914286c3.657143-3.657143 10.971429-7.314286 14.628571-7.314285 3.657143 0 10.971429 3.657143 14.628571 7.314285l153.6 113.371429c7.314286 7.314286 21.942857 7.314286 29.257143 0l299.885715-299.885714c7.314286-7.314286 21.942857-7.314286 29.257142 0l36.571429 36.571428c7.314286 10.971429 7.314286 25.6 0 32.914286z" p-id="6933" fill="#f4ea2a"></path></svg>