<?xml version="1.0" standalone="no"?><!DOCTYPE svg PUBLIC "-//W3C//DTD SVG 1.1//EN" "http://www.w3.org/Graphics/SVG/1.1/DTD/svg11.dtd"><svg t="1603981792745" class="icon" viewBox="0 0 1025 1024" version="1.1" xmlns="http://www.w3.org/2000/svg" p-id="3976" xmlns:xlink="http://www.w3.org/1999/xlink" width="16.015625" height="16"><defs><style type="text/css"></style></defs><path d="M614.528 83.84v844.992c0 19.136-21.056 30.72-37.248 20.48l-412.288-260.928H51.904c-28.672 0-51.904-23.232-51.904-51.904V376.192c0-28.672 23.232-51.904 51.904-51.904h113.088L577.28 63.36c16.128-10.24 37.248 1.408 37.248 20.48zM870.016 859.328c-7.232 0-14.464-2.432-20.416-7.36-13.568-11.264-15.488-31.488-4.16-45.056 58.048-69.888 93.312-163.904 99.328-264.704 6.016-100.864-17.856-198.336-67.2-274.624-14.208-21.888-30.464-41.856-48.32-59.2a31.968 31.968 0 0 1-0.576-45.248 31.968 31.968 0 0 1 45.248-0.576c21.312 20.736 40.576 44.352 57.408 70.272 56.704 87.616 84.16 198.848 77.376 313.216-6.784 114.304-47.232 221.504-113.92 301.824a32.8 32.8 0 0 1-24.768 11.456z" fill="#ff9e2c" p-id="3977"></path><path d="M790.4 768.448c-6.72 0-13.568-2.112-19.328-6.528a31.9616 31.9616 0 0 1-6.08-44.864c38.336-50.368 61.824-117.824 66.112-189.76 5.312-89.472-19.136-173.44-67.072-230.4a32.0384 32.0384 0 0 1 3.84-45.12 32.0384 32.0384 0 0 1 45.12 3.84c58.432 69.376 88.32 169.792 82.048 275.456-5.056 84.544-33.152 164.288-79.04 224.704-6.4 8.32-16 12.672-25.6 12.672z" fill="#ff9e2c" p-id="3978"></path><path d="M720.256 666.624c-4.864 0-9.792-1.088-14.4-3.456-15.744-8-22.08-27.264-14.08-43.008 14.656-28.992 23.552-63.36 25.728-99.328 2.816-47.104-6.208-92.416-25.28-127.488a32 32 0 0 1 12.8-43.392 32 32 0 0 1 43.392 12.8c24.768 45.504 36.48 102.976 32.96 161.92-2.688 44.672-13.888 87.68-32.512 124.416a32.128 32.128 0 0 1-28.608 17.536z" fill="#ff9e2c" p-id="3979"></path></svg>